<?xml version="1.0" standalone="no"?>
<!DOCTYPE svg PUBLIC "-//W3C//DTD SVG 20010904//EN"
 "http://www.w3.org/TR/2001/REC-SVG-20010904/DTD/svg10.dtd">
<svg version="1.0" xmlns="http://www.w3.org/2000/svg"
 width="512.000000pt" height="512.000000pt" viewBox="0 0 512.000000 512.000000"
 preserveAspectRatio="xMidYMid meet">

<g transform="translate(0.000000,512.000000) scale(0.100000,-0.100000)"
fill="#1E88E5" stroke="none">
<path d="M1255 4709 c-127 -18 -289 -81 -402 -156 -73 -48 -192 -160 -249
-235 -95 -123 -172 -307 -193 -461 -15 -108 -15 -2496 0 -2604 21 -154 98
-338 193 -461 56 -74 176 -187 246 -233 121 -80 277 -140 413 -158 108 -15
2496 -15 2604 0 136 18 292 78 413 158 70 46 190 159 246 233 95 123 172 307
193 461 15 108 15 2496 0 2604 -18 136 -78 292 -158 413 -46 70 -159 190 -233
246 -123 95 -307 172 -461 193 -96 13 -2521 13 -2612 0z m1489 -1018 c32 -11
83 -34 113 -50 l54 -30 47 30 c70 44 149 70 232 76 241 17 463 -145 525 -382
63 -245 -79 -506 -326 -596 l-59 -22 0 -303 0 -304 -105 0 -105 0 0 304 0 303
-59 22 c-312 114 -437 482 -256 751 l34 50 -49 25 c-68 34 -152 55 -225 55
-206 0 -424 -150 -533 -366 l-21 -42 59 -21 c123 -45 227 -137 286 -253 136
-268 2 -594 -287 -699 l-59 -22 0 -303 0 -304 -105 0 -105 0 0 304 0 303 -59
22 c-162 59 -283 191 -326 358 -68 259 102 538 370 608 33 8 73 15 91 15 27 0
33 6 50 42 57 128 198 291 308 357 65 39 160 79 219 91 68 15 224 4 291 -19z"/>
</g>
</svg>
